<?xml version="1.0" encoding="utf-8"?>
<!-- Generator: Adobe Illustrator 26.0.3, SVG Export Plug-In . SVG Version: 6.00 Build 0)  -->
<svg version="1.1" id="Layer_1" xmlns="http://www.w3.org/2000/svg" xmlns:xlink="http://www.w3.org/1999/xlink" x="0px" y="0px"
	 viewBox="0 0 428.54 138.54" style="enable-background:new 0 0 428.54 138.54;" xml:space="preserve">
<style type="text/css">
	.st0{fill:#FFFFFF;}
	.st1{fill:#383838;}
	.st2{fill:url(#SVGID_1_);}
</style>
<path class="st0" d="M354.97,138.54H68.41C30.63,138.54,0,107.92,0,70.13l0-1.72C0,30.63,30.63,0,68.41,0l286.56,0
	c37.78,0,68.41,30.63,68.41,68.41v1.72C423.38,107.92,392.75,138.54,354.97,138.54z"/>
<g>
	<g>
		<g>
			<path class="st1" d="M109.81,92.36H64.44c-1.06,0-1.92-0.66-1.92-1.46V56.21c0-0.81,0.86-1.46,1.92-1.46h12.01
				c1.06,0,1.92,0.66,1.92,1.46c0,0.81-0.86,1.46-1.92,1.46h-10.1v31.76h41.54V57.67h-9.83c-1.06,0-1.92-0.66-1.92-1.46
				c0-0.81,0.86-1.46,1.92-1.46h11.75c1.06,0,1.92,0.66,1.92,1.46V90.9C111.72,91.71,110.87,92.36,109.81,92.36z"/>
			<path class="st1" d="M109.81,93.22H64.44c-1.56,0-2.78-1.02-2.78-2.33V56.21c0-1.3,1.22-2.33,2.78-2.33h12.01
				c1.56,0,2.78,1.02,2.78,2.33c0,1.3-1.22,2.33-2.78,2.33h-9.24v30.04h39.82V58.53h-8.97c-1.56,0-2.78-1.02-2.78-2.33
				c0-1.3,1.22-2.33,2.78-2.33h11.75c1.56,0,2.78,1.02,2.78,2.33V90.9C112.58,92.2,111.36,93.22,109.81,93.22z M64.44,55.6
				c-0.59,0-1.06,0.32-1.06,0.6V90.9c0,0.28,0.46,0.6,1.06,0.6h45.37c0.59,0,1.06-0.32,1.06-0.6V56.21c0-0.28-0.46-0.6-1.06-0.6
				H98.06c-0.59,0-1.06,0.32-1.06,0.6s0.46,0.6,1.06,0.6h10.69v33.48H65.49V56.81h10.96c0.59,0,1.06-0.33,1.06-0.6
				s-0.46-0.6-1.06-0.6H64.44z"/>
		</g>
		<g>
			<path class="st1" d="M87.12,33.85c1.06,0,1.92,0.86,1.92,1.92v38.17c0,1.06-0.86,1.92-1.92,1.92c-1.06,0-1.92-0.86-1.92-1.92
				V35.76C85.21,34.7,86.06,33.85,87.12,33.85z"/>
			<path class="st1" d="M87.12,32.99c1.53,0,2.78,1.25,2.78,2.78v38.17c0,1.53-1.25,2.78-2.78,2.78c-1.53,0-2.78-1.25-2.78-2.78
				V35.76C84.35,34.23,85.59,32.99,87.12,32.99z M87.12,74.99c0.58,0,1.06-0.47,1.06-1.06V35.76c0-0.58-0.47-1.06-1.06-1.06
				s-1.06,0.47-1.06,1.06v38.17C86.07,74.52,86.54,74.99,87.12,74.99z"/>
		</g>
		<g>
			<path class="st1" d="M96.3,63.92c0.43,0,0.87,0.15,1.22,0.44c0.82,0.68,0.92,1.88,0.25,2.7L88.6,78.1
				c-0.73,0.88-2.22,0.88-2.95,0l-9.18-11.03c-0.67-0.81-0.57-2.02,0.25-2.7c0.8-0.68,2.01-0.57,2.7,0.25l7.71,9.26l7.7-9.26
				C95.21,64.16,95.75,63.92,96.3,63.92z"/>
			<path class="st1" d="M77.93,63.06c0.08,0,0.16,0,0.24,0.01c0.75,0.06,1.42,0.41,1.9,0.99l7.05,8.47l7.04-8.47
				c0.53-0.64,1.31-1,2.14-1c0.65,0,1.28,0.23,1.78,0.64c1.17,0.97,1.34,2.73,0.36,3.91l-9.18,11.04c-0.52,0.62-1.29,0.97-2.14,0.97
				c-0.84,0-1.62-0.35-2.13-0.96l-9.18-11.04c-0.98-1.18-0.82-2.94,0.36-3.91C76.66,63.29,77.28,63.06,77.93,63.06z M87.12,75.22
				l-8.37-10.06c-0.18-0.22-0.44-0.35-0.73-0.38c-0.28-0.02-0.54,0.06-0.75,0.24c-0.45,0.38-0.52,1.04-0.14,1.49l9.18,11.03
				c0.37,0.44,1.26,0.44,1.63,0l9.17-11.03c0.37-0.45,0.31-1.12-0.14-1.49c-0.24-0.2-0.5-0.25-0.67-0.25
				c-0.31,0-0.61,0.14-0.82,0.38L87.12,75.22z"/>
		</g>
	</g>
	<g>
		<linearGradient id="SVGID_1_" gradientUnits="userSpaceOnUse" x1="0" y1="69.2723" x2="428.5419" y2="69.2723">
			<stop  offset="0.0939" style="stop-color:#FF68E0"/>
			<stop  offset="0.2117" style="stop-color:#F175E1"/>
			<stop  offset="0.4356" style="stop-color:#CB96E4"/>
			<stop  offset="0.7392" style="stop-color:#8FCCE9"/>
			<stop  offset="1" style="stop-color:#56FFEE"/>
		</linearGradient>
		<path class="st2" d="M359.27,138.54h-290C31.08,138.54,0,107.47,0,69.27S31.08,0,69.27,0h290c38.2,0,69.27,31.08,69.27,69.27
			S397.47,138.54,359.27,138.54z M69.27,5.16c-35.35,0-64.11,28.76-64.11,64.11s28.76,64.11,64.11,64.11h290
			c35.35,0,64.11-28.76,64.11-64.11S394.62,5.16,359.27,5.16H69.27z"/>
	</g>
	<g>
		<path class="st1" d="M186.65,69.9c0.98,1.4,1.47,3.62,1.47,6.66c0,3.08-0.4,5.43-1.19,7.04c-0.79,1.61-2.1,2.77-3.92,3.47
			c-0.51,0.19-1.2,0.35-2.07,0.49c-0.87,0.14-1.96,0.24-3.29,0.32c-1.33,0.07-2.94,0.13-4.84,0.18c-1.89,0.05-4.15,0.07-6.76,0.07
			c-2.71,0-5.03-0.04-6.97-0.11c-1.94-0.07-3.6-0.19-4.98-0.35c-1.38-0.16-2.51-0.37-3.4-0.63c-0.89-0.26-1.64-0.6-2.24-1.02
			c-1.21-0.75-2.05-1.73-2.52-2.94c-0.47-1.21-0.7-3.04-0.7-5.46v-1.68h8.97c0,1.07,0.09,1.96,0.28,2.66
			c0.14,0.47,0.33,0.84,0.56,1.12c0.09,0.14,0.22,0.28,0.39,0.42c0.16,0.14,0.32,0.26,0.45,0.35c0.42,0.23,0.84,0.42,1.26,0.56
			c0.37,0.09,0.79,0.16,1.26,0.21c0.47,0.05,1.05,0.07,1.75,0.07c0.7,0.05,1.55,0.07,2.56,0.07s2.21,0,3.61,0h0.07
			c1.4,0,2.65,0,3.75,0c1.1,0,2.04-0.02,2.84-0.07c1.17,0,2.15-0.07,2.94-0.21c0.61-0.05,1.15-0.21,1.61-0.49
			c0.37-0.14,0.68-0.4,0.91-0.77c0.14-0.14,0.3-0.4,0.49-0.77c0.09-0.19,0.14-0.37,0.14-0.56c0-0.19,0.02-0.37,0.07-0.56
			c0.05-0.61,0.07-1.13,0.07-1.58c0-0.44-0.12-0.85-0.35-1.23c-0.42-0.65-1.38-1.15-2.87-1.47c-0.37-0.05-0.75-0.08-1.12-0.11
			c-0.37-0.02-0.82-0.04-1.33-0.04l-8.41-0.35l-5.67-0.28l-2.81-0.07c-2.2-0.09-3.99-0.3-5.39-0.63c-1.59-0.42-2.84-1.03-3.75-1.82
			c-0.91-0.79-1.48-2.01-1.72-3.64c-0.14-0.98-0.21-2.12-0.21-3.43c0-3.32,0.51-5.8,1.54-7.46c1.03-1.66,2.76-2.74,5.18-3.26
			c1.03-0.23,2.77-0.4,5.22-0.49c2.45-0.09,5.8-0.14,10.06-0.14c2.52,0,4.68,0.04,6.48,0.11c1.8,0.07,3.33,0.19,4.59,0.35
			c1.26,0.16,2.3,0.39,3.12,0.67c0.82,0.28,1.53,0.63,2.14,1.05c1.07,0.7,1.83,1.65,2.28,2.84c0.44,1.19,0.66,2.84,0.66,4.94
			c0,0.09,0,0.3,0,0.63c0,0.33-0.02,0.65-0.07,0.98h-8.9v-0.07c0-0.23-0.01-0.46-0.03-0.67c-0.02-0.21-0.03-0.41-0.03-0.6
			c-0.05-0.14-0.07-0.28-0.07-0.42c0-0.14-0.03-0.28-0.07-0.42c-0.14-0.37-0.35-0.75-0.63-1.12c-0.33-0.42-0.63-0.68-0.91-0.77
			c-0.19-0.09-0.37-0.18-0.56-0.25c-0.19-0.07-0.4-0.15-0.63-0.24c-0.37-0.09-0.79-0.15-1.26-0.18c-0.47-0.02-1.05-0.06-1.75-0.11
			c-0.7-0.05-1.55-0.07-2.56-0.07s-2.23,0-3.68,0c-1.12,0-2.13,0-3.01,0c-0.89,0-1.68,0.02-2.38,0.07c-0.51,0.05-0.98,0.08-1.4,0.11
			c-0.42,0.02-0.82,0.08-1.19,0.18c-0.56,0.09-1.05,0.23-1.47,0.42c-0.33,0.14-0.63,0.35-0.91,0.63c-0.23,0.23-0.4,0.47-0.49,0.7
			c-0.09,0.23-0.16,0.47-0.21,0.7c-0.05,0.19-0.08,0.35-0.11,0.49c-0.02,0.14-0.03,0.28-0.03,0.42c0,0.98,0.16,1.71,0.49,2.17
			c0.37,0.56,1.14,0.98,2.31,1.26c0.19,0.05,0.37,0.08,0.56,0.11c0.19,0.02,0.42,0.06,0.7,0.11c0.79,0.09,1.99,0.16,3.57,0.21
			c1.59,0.05,3.78,0.12,6.59,0.21c2.89,0.09,5.24,0.19,7.04,0.28c1.8,0.09,3.28,0.21,4.45,0.35c1.5,0.19,2.78,0.48,3.86,0.88
			C185.13,68.3,186,68.97,186.65,69.9z"/>
		<path class="st1" d="M231.36,87.56l-2.94-5.96h-1.54h-24.74l-3.08,5.96h-10.58l18.57-35.04h16.61l18.36,35.04H231.36z
			 M205.15,75.37h20.18l-0.98-2.03l-6.73-13.31l-0.42-0.77h-3.79L213,60.02l-6.8,13.31L205.15,75.37z"/>
		<path class="st1" d="M291.2,52.52l-17.1,35.04h-16.33L240.4,52.52h10.16l13.46,27.61h3.85l13.25-27.61H291.2z"/>
		<path class="st1" d="M331.98,80.55v7.01h-39.03V52.52h38.82v6.87h-29.71v7.15h28.24v6.38h-28.24v7.64H331.98z"/>
	</g>
</g>
</svg>
