<?xml version="1.0" encoding="utf-8"?>
<!-- Generator: Adobe Illustrator 26.0.3, SVG Export Plug-In . SVG Version: 6.00 Build 0)  -->
<svg version="1.1" id="Layer_1" xmlns="http://www.w3.org/2000/svg" xmlns:xlink="http://www.w3.org/1999/xlink" x="0px" y="0px"
	 viewBox="0 0 428.54 138.54" style="enable-background:new 0 0 428.54 138.54;" xml:space="preserve">
<style type="text/css">
	.st0{fill:#FFFFFF;}
	.st1{fill:#383838;}
	.st2{fill:url(#SVGID_1_);}
</style>
<path class="st0" d="M360.13,138.54H73.57c-37.78,0-68.41-30.63-68.41-68.41v-1.72C5.16,30.63,35.79,0,73.57,0l286.56,0
	c37.78,0,68.41,30.63,68.41,68.41v1.72C428.54,107.92,397.91,138.54,360.13,138.54z"/>
<g>
	<g>
		<path class="st1" d="M185.51,69.89c0.95,1.35,1.42,3.5,1.42,6.43c0,2.98-0.38,5.25-1.15,6.8c-0.77,1.56-2.03,2.67-3.79,3.35
			c-0.5,0.18-1.16,0.34-2,0.47c-0.84,0.14-1.9,0.24-3.18,0.3c-1.29,0.07-2.84,0.12-4.67,0.17c-1.83,0.04-4.01,0.07-6.53,0.07
			c-2.62,0-4.86-0.03-6.74-0.1c-1.87-0.07-3.48-0.18-4.81-0.34c-1.33-0.16-2.43-0.36-3.28-0.61c-0.86-0.25-1.58-0.58-2.17-0.98
			c-1.17-0.72-1.99-1.67-2.44-2.84c-0.45-1.17-0.68-2.93-0.68-5.28v-1.62h8.66c0,1.04,0.09,1.9,0.27,2.57
			c0.14,0.45,0.32,0.81,0.54,1.08c0.09,0.14,0.21,0.27,0.37,0.41c0.16,0.14,0.31,0.25,0.44,0.34c0.41,0.23,0.81,0.41,1.22,0.54
			c0.36,0.09,0.77,0.16,1.22,0.2c0.45,0.05,1.02,0.07,1.69,0.07c0.68,0.05,1.5,0.07,2.47,0.07c0.97,0,2.13,0,3.49,0h0.07
			c1.35,0,2.56,0,3.62,0c1.06,0,1.97-0.02,2.74-0.07c1.13,0,2.07-0.07,2.84-0.2c0.59-0.04,1.11-0.2,1.56-0.47
			c0.36-0.14,0.65-0.38,0.88-0.74c0.14-0.14,0.29-0.38,0.47-0.74c0.09-0.18,0.14-0.36,0.14-0.54c0-0.18,0.02-0.36,0.07-0.54
			c0.04-0.59,0.07-1.09,0.07-1.52c0-0.43-0.11-0.82-0.34-1.18c-0.41-0.63-1.33-1.11-2.77-1.42c-0.36-0.04-0.72-0.08-1.08-0.1
			c-0.36-0.02-0.79-0.03-1.29-0.03l-8.12-0.34l-5.48-0.27l-2.71-0.07c-2.12-0.09-3.86-0.29-5.21-0.61
			c-1.53-0.41-2.74-0.99-3.62-1.76c-0.88-0.77-1.43-1.94-1.66-3.52c-0.14-0.95-0.2-2.05-0.2-3.32c0-3.2,0.5-5.61,1.49-7.21
			c0.99-1.6,2.66-2.65,5.01-3.15c0.99-0.23,2.67-0.38,5.04-0.47c2.37-0.09,5.61-0.14,9.71-0.14c2.44,0,4.52,0.03,6.26,0.1
			c1.74,0.07,3.22,0.18,4.43,0.34c1.22,0.16,2.22,0.37,3.01,0.64c0.79,0.27,1.48,0.61,2.06,1.02c1.04,0.68,1.77,1.59,2.2,2.74
			c0.43,1.15,0.64,2.74,0.64,4.77c0,0.09,0,0.29,0,0.61s-0.02,0.63-0.07,0.95h-8.6v-0.07c0-0.23-0.01-0.44-0.03-0.64
			c-0.02-0.2-0.03-0.39-0.03-0.57c-0.05-0.14-0.07-0.27-0.07-0.41c0-0.14-0.02-0.27-0.07-0.41c-0.14-0.36-0.34-0.72-0.61-1.08
			c-0.32-0.41-0.61-0.65-0.88-0.74c-0.18-0.09-0.36-0.17-0.54-0.24c-0.18-0.07-0.38-0.15-0.61-0.24c-0.36-0.09-0.77-0.15-1.22-0.17
			c-0.45-0.02-1.02-0.06-1.69-0.1c-0.68-0.04-1.5-0.07-2.47-0.07c-0.97,0-2.16,0-3.55,0c-1.08,0-2.05,0-2.91,0s-1.62,0.02-2.3,0.07
			c-0.5,0.05-0.95,0.08-1.35,0.1c-0.41,0.02-0.79,0.08-1.15,0.17c-0.54,0.09-1.02,0.23-1.42,0.41c-0.32,0.14-0.61,0.34-0.88,0.61
			c-0.23,0.23-0.38,0.45-0.47,0.68c-0.09,0.23-0.16,0.45-0.2,0.68c-0.05,0.18-0.08,0.34-0.1,0.47c-0.02,0.14-0.03,0.27-0.03,0.41
			c0,0.95,0.16,1.65,0.47,2.1c0.36,0.54,1.11,0.95,2.23,1.22c0.18,0.05,0.36,0.08,0.54,0.1c0.18,0.02,0.41,0.06,0.68,0.1
			c0.77,0.09,1.92,0.16,3.45,0.2c1.53,0.05,3.66,0.11,6.36,0.2c2.8,0.09,5.07,0.18,6.8,0.27c1.74,0.09,3.17,0.2,4.3,0.34
			c1.44,0.18,2.68,0.46,3.72,0.85C184.04,68.35,184.88,68.99,185.51,69.89z"/>
		<path class="st1" d="M235.47,53.1v33.85h-9.48V74.02H200v12.93h-9.48V53.1H200V65.9h25.99V53.1H235.47z"/>
		<path class="st1" d="M278.39,86.95l-2.84-5.75h-1.49h-23.9l-2.98,5.75h-10.22L254.9,53.1h16.04l17.74,33.85H278.39z M253.07,75.17
			h19.5l-0.95-1.96l-6.5-12.86l-0.41-0.74h-3.65l-0.41,0.74l-6.57,12.86L253.07,75.17z"/>
		<path class="st1" d="M326.04,73.88c1.31,0.14,2.36,0.37,3.15,0.71c0.79,0.34,1.4,0.86,1.83,1.56c0.43,0.7,0.7,1.67,0.81,2.91
			c0.11,1.24,0.15,2.83,0.1,4.77v3.11h-8.8v-1.76c0-0.5,0-0.94,0-1.32c0-0.38-0.02-0.76-0.07-1.12c0-0.27-0.01-0.52-0.03-0.74
			c-0.02-0.23-0.03-0.45-0.03-0.68c-0.14-0.95-0.43-1.69-0.88-2.23c-0.45-0.5-1.24-0.88-2.37-1.15c-0.5-0.14-1.08-0.2-1.76-0.2
			c-0.36-0.04-0.78-0.07-1.25-0.07c-0.47,0-1.03,0-1.66,0H299.1v9.27h-8.94V53.1h24.91c2.93,0,5.2,0.01,6.8,0.03
			c1.6,0.02,2.84,0.07,3.72,0.14c0.88,0.07,1.52,0.19,1.93,0.37c0.41,0.18,0.88,0.43,1.42,0.74c0.63,0.41,1.16,0.87,1.59,1.39
			c0.43,0.52,0.78,1.15,1.05,1.9s0.46,1.64,0.58,2.67c0.11,1.04,0.17,2.3,0.17,3.79c0,1.26-0.03,2.34-0.1,3.22
			c-0.07,0.88-0.19,1.65-0.37,2.3c-0.18,0.65-0.43,1.2-0.74,1.62c-0.32,0.43-0.7,0.82-1.15,1.18c-0.5,0.36-1.02,0.64-1.56,0.85
			C327.87,73.51,327.08,73.7,326.04,73.88z M323.27,67.18c0.04-0.23,0.07-0.47,0.07-0.74c0-0.27,0-0.54,0-0.81c0-0.32,0-0.61,0-0.88
			c0-0.27-0.02-0.52-0.07-0.75c-0.09-0.45-0.18-0.81-0.27-1.08c-0.09-0.27-0.18-0.52-0.27-0.74c-0.23-0.32-0.45-0.61-0.68-0.88
			c-0.27-0.27-0.59-0.47-0.95-0.61l-0.07-0.07c-0.09,0-0.15-0.01-0.17-0.03c-0.02-0.02-0.08-0.03-0.17-0.03
			c-0.09-0.04-0.15-0.07-0.17-0.07c-0.02,0-0.08-0.02-0.17-0.07c-0.14,0-0.25-0.02-0.34-0.07c-0.27,0-0.5-0.02-0.68-0.07h-1.56
			c-0.36-0.04-0.76-0.07-1.18-0.07c-0.43,0-0.96,0-1.59,0H299.1v10.36h15.91c0.63,0,1.2,0,1.69,0c0.5,0,0.92-0.02,1.29-0.07h1.35
			c0.14-0.04,0.26-0.07,0.37-0.07c0.11,0,0.21-0.02,0.3-0.07c0.18,0,0.32-0.02,0.41-0.07c0.77-0.23,1.41-0.65,1.93-1.29
			C322.87,68.38,323.18,67.77,323.27,67.18z"/>
		<path class="st1" d="M373.56,80.18v6.77h-37.71V53.1h37.5v6.63h-28.7v6.9h27.28v6.16h-27.28v7.38H373.56z"/>
	</g>
	<g>
		<g>
			<path class="st1" d="M109.81,92.36H64.44c-1.06,0-1.92-0.66-1.92-1.46V56.21c0-0.81,0.86-1.46,1.92-1.46h12.01
				c1.06,0,1.92,0.66,1.92,1.46c0,0.81-0.86,1.46-1.92,1.46h-10.1v31.76h41.54V57.67h-9.83c-1.06,0-1.92-0.66-1.92-1.46
				c0-0.81,0.86-1.46,1.92-1.46h11.75c1.06,0,1.92,0.66,1.92,1.46V90.9C111.72,91.71,110.87,92.36,109.81,92.36z"/>
			<path class="st1" d="M109.81,93.22H64.44c-1.56,0-2.78-1.02-2.78-2.33V56.21c0-1.3,1.22-2.33,2.78-2.33h12.01
				c1.56,0,2.78,1.02,2.78,2.33c0,1.3-1.22,2.33-2.78,2.33h-9.24v30.04h39.82V58.53h-8.97c-1.56,0-2.78-1.02-2.78-2.33
				c0-1.3,1.22-2.33,2.78-2.33h11.75c1.56,0,2.78,1.02,2.78,2.33V90.9C112.58,92.2,111.36,93.22,109.81,93.22z M64.44,55.6
				c-0.59,0-1.06,0.32-1.06,0.6V90.9c0,0.28,0.46,0.6,1.06,0.6h45.37c0.59,0,1.06-0.32,1.06-0.6V56.21c0-0.28-0.46-0.6-1.06-0.6
				H98.06c-0.59,0-1.06,0.32-1.06,0.6s0.46,0.6,1.06,0.6h10.69v33.48H65.49V56.81h10.96c0.59,0,1.06-0.33,1.06-0.6
				s-0.46-0.6-1.06-0.6H64.44z"/>
		</g>
		<g>
			<path class="st1" d="M87.12,78.76c-1.06,0-1.92-0.86-1.92-1.92V38.67c0-1.06,0.86-1.92,1.92-1.92c1.06,0,1.92,0.86,1.92,1.92
				v38.17C89.04,77.9,88.18,78.76,87.12,78.76z"/>
			<path class="st1" d="M87.12,79.62c-1.53,0-2.78-1.25-2.78-2.78V38.67c0-1.53,1.25-2.78,2.78-2.78c1.53,0,2.78,1.25,2.78,2.78
				v38.17C89.9,78.37,88.65,79.62,87.12,79.62z M87.12,37.61c-0.58,0-1.06,0.47-1.06,1.06v38.17c0,0.58,0.47,1.06,1.06,1.06
				s1.06-0.47,1.06-1.06V38.67C88.18,38.09,87.7,37.61,87.12,37.61z"/>
		</g>
		<g>
			<path class="st1" d="M77.94,48.68c-0.43,0-0.87-0.15-1.22-0.44c-0.82-0.68-0.92-1.88-0.25-2.7l9.18-11.03
				c0.73-0.88,2.22-0.88,2.95,0l9.18,11.03c0.67,0.81,0.57,2.02-0.25,2.7c-0.8,0.68-2.01,0.57-2.7-0.25l-7.71-9.26l-7.7,9.26
				C79.04,48.44,78.49,48.68,77.94,48.68z"/>
			<path class="st1" d="M96.31,49.54c-0.08,0-0.16,0-0.24-0.01c-0.75-0.06-1.42-0.41-1.9-0.99l-7.05-8.47l-7.04,8.47
				c-0.53,0.64-1.31,1-2.14,1c-0.65,0-1.28-0.23-1.78-0.64c-1.17-0.97-1.34-2.73-0.36-3.91l9.18-11.04
				c0.52-0.62,1.29-0.97,2.14-0.97s1.62,0.35,2.13,0.96l9.18,11.04c0.98,1.18,0.82,2.94-0.36,3.91
				C97.58,49.32,96.96,49.54,96.31,49.54z M87.12,37.38l8.37,10.06c0.18,0.22,0.44,0.35,0.73,0.38c0.28,0.02,0.54-0.06,0.75-0.24
				c0.45-0.38,0.52-1.04,0.14-1.49l-9.18-11.03c-0.37-0.44-1.26-0.44-1.63,0l-9.17,11.03c-0.37,0.45-0.31,1.12,0.14,1.49
				c0.24,0.2,0.5,0.25,0.67,0.25c0.31,0,0.61-0.14,0.82-0.38L87.12,37.38z"/>
		</g>
	</g>
	<g>
		<linearGradient id="SVGID_1_" gradientUnits="userSpaceOnUse" x1="9.094947e-13" y1="69.2723" x2="428.5419" y2="69.2723">
			<stop  offset="0.0939" style="stop-color:#FF68E0"/>
			<stop  offset="0.2117" style="stop-color:#F175E1"/>
			<stop  offset="0.4356" style="stop-color:#CB96E4"/>
			<stop  offset="0.7392" style="stop-color:#8FCCE9"/>
			<stop  offset="1" style="stop-color:#56FFEE"/>
		</linearGradient>
		<path class="st2" d="M359.27,138.54h-290C31.08,138.54,0,107.47,0,69.27S31.08,0,69.27,0h290c38.2,0,69.27,31.08,69.27,69.27
			S397.47,138.54,359.27,138.54z M69.27,5.16c-35.35,0-64.11,28.76-64.11,64.11s28.76,64.11,64.11,64.11h290
			c35.35,0,64.11-28.76,64.11-64.11S394.62,5.16,359.27,5.16H69.27z"/>
	</g>
</g>
</svg>
